<svg id="Capa_1" data-name="Capa 1" xmlns="http://www.w3.org/2000/svg" xmlns:xlink="http://www.w3.org/1999/xlink" viewBox="0 0 120.98 139.69"><defs><style>.cls-1{fill:url(#Degradado_sin_nombre_7);}.cls-2{fill:url(#Degradado_sin_nombre_7-2);}</style><linearGradient id="Degradado_sin_nombre_7" x1="503.79" y1="225.22" x2="504.33" y2="85.11" gradientUnits="userSpaceOnUse"><stop offset="0" stop-color="#00e9e9"/><stop offset="1" stop-color="#008cff"/></linearGradient><linearGradient id="Degradado_sin_nombre_7-2" x1="60.27" y1="139.37" x2="60.56" y2="1.27" xlink:href="#Degradado_sin_nombre_7"/></defs><title>logoN</title><path class="cls-1" d="M504.07,84.33l-60.49,34.92V189.1L504.07,224l60.49-34.92V119.26ZM562.4,187.86L530.93,206a6.86,6.86,0,0,0,.54-2.63c0-4.63-4.68-8.37-10.45-8.37a12.09,12.09,0,0,0-6.57,1.86c-2.06-3.13-6.16-5.26-10.88-5.26A13.12,13.12,0,0,0,493,196.46a12.28,12.28,0,0,0-5.87-1.45c-5.77,0-10.45,3.75-10.45,8.37a6.86,6.86,0,0,0,.54,2.63l-31.47-18.17V120.5l58.33-33.68L562.4,120.5v67.35Z" transform="translate(-443.58 -84.33)"/><polygon class="cls-2" points="25.26 33.92 38.13 26.43 60.02 86.2 60.25 86.2 83.31 26.43 95.72 33.92 67.99 97.75 51.21 97.75 25.26 33.92"/></svg>
